<?xml version="1.0" encoding="iso-8859-1"?>
<!-- Generator: Adobe Illustrator 19.0.0, SVG Export Plug-In . SVG Version: 6.00 Build 0)  -->
<svg version="1.1" id="Layer_1" xmlns="http://www.w3.org/2000/svg" xmlns:xlink="http://www.w3.org/1999/xlink" x="0px" y="0px"
	 viewBox="0 0 486.062 486.062" style="enable-background:new 0 0 486.062 486.062;" xml:space="preserve">
<g id="XMLID_1409_">
	<g id="XMLID_562_">
		<circle style="fill:#3AAA35;" cx="243.031" cy="243.03" r="40.438"/>
	</g>
	<g id="XMLID_1020_">
		<circle style="fill:#89CC86;" cx="237.532" cy="232.869" r="25.682"/>
	</g>
	<g id="XMLID_1292_">
		<circle style="fill:#5EBAE7;" cx="48.063" cy="243.03" r="40.438"/>
	</g>
	<g id="XMLID_1291_">
		<circle style="fill:#9ED6F1;" cx="42.564" cy="232.869" r="25.682"/>
	</g>
	<g id="XMLID_1300_">
		<circle style="fill:#5EBAE7;" cx="145.547" cy="74.183" r="40.438"/>
	</g>
	<g id="XMLID_1299_">
		<circle style="fill:#9ED6F1;" cx="140.048" cy="64.022" r="25.682"/>
	</g>
	<g id="XMLID_1302_">
		<circle style="fill:#5EBAE7;" cx="341.892" cy="74.183" r="40.438"/>
	</g>
	<g id="XMLID_1301_">
		<circle style="fill:#9ED6F1;" cx="336.392" cy="64.022" r="25.682"/>
	</g>
	<g id="XMLID_1294_">
		<circle style="fill:#5EBAE7;" cx="437.999" cy="243.03" r="40.438"/>
	</g>
	<g id="XMLID_1293_">
		<circle style="fill:#9ED6F1;" cx="432.5" cy="232.869" r="25.682"/>
	</g>
	<g id="XMLID_1296_">
		<circle style="fill:#5EBAE7;" cx="341.892" cy="410.775" r="40.438"/>
	</g>
	<g id="XMLID_1295_">
		<circle style="fill:#9ED6F1;" cx="336.392" cy="400.614" r="25.682"/>
	</g>
	<g id="XMLID_1298_">
		<circle style="fill:#5EBAE7;" cx="145.547" cy="410.775" r="40.438"/>
	</g>
	<g id="XMLID_1297_">
		<circle style="fill:#9ED6F1;" cx="140.048" cy="400.614" r="25.682"/>
	</g>
	<g id="XMLID_1359_">
		<path style="fill:#1D1D1B;" d="M243.031,291.093c-26.502,0-48.063-21.56-48.063-48.063s21.561-48.063,48.063-48.063
			s48.062,21.561,48.062,48.063S269.533,291.093,243.031,291.093z M243.031,210.218c-18.093,0-32.813,14.72-32.813,32.813
			s14.72,32.813,32.813,32.813s32.812-14.72,32.812-32.813S261.124,210.218,243.031,210.218z"/>
	</g>
	<path style="fill:#1D1D1B;" d="M437.999,194.968c-6.029,0-11.796,1.126-17.118,3.162l-49.619-85.942
		c11.36-8.799,18.693-22.558,18.693-38.005c0-26.502-21.561-48.063-48.063-48.063c-23.907,0-43.786,17.547-47.451,40.438H192.999
		c-3.665-22.89-23.545-40.438-47.452-40.438c-26.502,0-48.063,21.561-48.063,48.063c0,15.016,6.925,28.44,17.745,37.261
		L65.181,198.13c-5.322-2.036-11.09-3.162-17.118-3.162C21.562,194.968,0,216.528,0,243.03s21.562,48.063,48.063,48.063
		c6.029,0,11.797-1.126,17.118-3.162l50.049,86.686c-10.82,8.82-17.746,22.246-17.746,37.261c0,26.502,21.561,48.063,48.063,48.063
		c23.907,0,43.787-17.547,47.452-40.438H294.44c3.665,22.89,23.544,40.438,47.451,40.438c26.502,0,48.063-21.561,48.063-48.063
		c0-15.447-7.333-29.207-18.693-38.005l49.618-85.942c5.322,2.036,11.09,3.162,17.119,3.162c26.502,0,48.064-21.56,48.064-48.063
		S464.501,194.968,437.999,194.968z M341.892,41.37c18.094,0,32.813,14.72,32.813,32.812c0,18.094-14.72,32.813-32.813,32.813
		s-32.813-14.72-32.813-32.813C309.079,56.09,323.799,41.37,341.892,41.37z M145.547,41.37c18.094,0,32.814,14.72,32.814,32.812
		c0,18.094-14.72,32.813-32.814,32.813c-18.093,0-32.813-14.72-32.813-32.813C112.734,56.09,127.454,41.37,145.547,41.37z
		 M15.25,243.03c0-18.093,14.72-32.813,32.813-32.813s32.813,14.72,32.813,32.813s-14.72,32.813-32.813,32.813
		S15.25,261.123,15.25,243.03z M145.547,444.69c-18.093,0-32.813-14.72-32.813-32.813c0-18.094,14.72-32.813,32.813-32.813
		c18.094,0,32.814,14.72,32.814,32.813C178.36,429.971,163.641,444.69,145.547,444.69z M341.892,444.69
		c-18.093,0-32.813-14.72-32.813-32.813c0-18.094,14.72-32.813,32.813-32.813c18.094,0,32.813,14.72,32.813,32.813
		C374.705,429.971,359.985,444.69,341.892,444.69z M357.876,366.558c-5.004-1.77-10.382-2.743-15.984-2.743
		c-6.354,0-12.418,1.251-17.975,3.5l-54.441-93.145l-13.166,7.695l54.558,93.345c-8.572,7.264-14.574,17.467-16.427,29.042H192.999
		c-1.979-12.357-8.685-23.151-18.199-30.473l53.716-91.904l-13.166-7.695l-53.964,92.328c-4.963-1.738-10.29-2.694-15.839-2.694
		c-6.029,0-11.797,1.126-17.118,3.162L78.38,280.291c8.95-7.296,15.23-17.743,17.135-29.636h107.632v-15.25H95.515
		c-1.904-11.893-8.184-22.34-17.135-29.636l50.048-86.686c5.322,2.036,11.09,3.162,17.119,3.162c5.566,0,10.909-0.962,15.885-2.71
		l52.42,89.687l13.166-7.695l-52.18-89.277c9.494-7.322,16.185-18.103,18.161-30.443H294.44c1.851,11.559,7.838,21.749,16.39,29.011
		l-54.468,93.191l13.166,7.695l54.342-92.977c5.569,2.261,11.649,3.518,18.02,3.518c5.603,0,10.98-0.973,15.984-2.743l49.806,86.267
		c-8.95,7.296-15.23,17.743-17.135,29.636H277.993v15.25h112.555c1.904,11.893,8.184,22.34,17.134,29.636L357.876,366.558z
		 M437.999,275.843c-18.093,0-32.813-14.72-32.813-32.813s14.72-32.813,32.813-32.813c18.094,0,32.814,14.72,32.814,32.813
		S456.093,275.843,437.999,275.843z"/>
</g>
<g>
</g>
<g>
</g>
<g>
</g>
<g>
</g>
<g>
</g>
<g>
</g>
<g>
</g>
<g>
</g>
<g>
</g>
<g>
</g>
<g>
</g>
<g>
</g>
<g>
</g>
<g>
</g>
<g>
</g>
</svg>
